<?xml version="1.0" encoding="UTF-8" standalone="no"?>
<!-- Created with Inkscape (http://www.inkscape.org/) -->

<svg
   xmlns:dc="http://purl.org/dc/elements/1.1/"
   xmlns:cc="http://creativecommons.org/ns#"
   xmlns:rdf="http://www.w3.org/1999/02/22-rdf-syntax-ns#"
   xmlns:svg="http://www.w3.org/2000/svg"
   xmlns="http://www.w3.org/2000/svg"
   xmlns:sodipodi="http://sodipodi.sourceforge.net/DTD/sodipodi-0.dtd"
   xmlns:inkscape="http://www.inkscape.org/namespaces/inkscape"
   width="235.8147"
   height="173.78064"
   id="svg5026"
   version="1.1"
   inkscape:version="0.48.1 "
   sodipodi:docname="Documento nuevo 15">
  <defs
     id="defs5028" />
  <sodipodi:namedview
     id="base"
     pagecolor="#ffffff"
     bordercolor="#666666"
     borderopacity="1.0"
     inkscape:pageopacity="0.0"
     inkscape:pageshadow="2"
     inkscape:zoom="0.7"
     inkscape:cx="58.349052"
     inkscape:cy="-0.6247041"
     inkscape:document-units="px"
     inkscape:current-layer="layer1"
     showgrid="false"
     fit-margin-top="0"
     fit-margin-left="0"
     fit-margin-right="0"
     fit-margin-bottom="0"
     inkscape:window-width="504"
     inkscape:window-height="425"
     inkscape:window-x="125"
     inkscape:window-y="125"
     inkscape:window-maximized="0" />
  <metadata
     id="metadata5031">
    <rdf:RDF>
      <cc:Work
         rdf:about="">
        <dc:format>image/svg+xml</dc:format>
        <dc:type
           rdf:resource="http://purl.org/dc/dcmitype/StillImage" />
        <dc:title></dc:title>
      </cc:Work>
    </rdf:RDF>
  </metadata>
  <g
     inkscape:label="Capa 1"
     inkscape:groupmode="layer"
     id="layer1"
     transform="translate(-302.07565,-393.88698)">
    <g
       style="stroke-width:0.9797309;stroke-miterlimit:4;stroke-dasharray:none;display:inline"
       id="g4821"
       transform="matrix(1.6108044,0,0,1.6118887,838.53069,-278.27061)">
      <path
         sodipodi:nodetypes="ccccccsc"
         inkscape:connector-curvature="0"
         id="path4805"
         d="m -236.44287,512.96858 c 3.9461,2.15001 9.09479,1.13502 18.92776,-3.9821 -1.80692,2.47473 -0.65643,3.11991 2.38222,2.59703 -3.76004,3.30049 0.42274,3.799 1.81915,4.89107 -4.67465,0.41419 -9.15756,0.87216 -17.75833,0.38955 -5.70219,-1.40903 -5.81527,-2.07336 -8.44602,-3.07315 0,0 0.3465,-0.8224 0.51975,-0.77911 0.17326,0.0433 2.55547,-0.0433 2.55547,-0.0433 z"
         style="fill:#ed1c24;fill-opacity:1;stroke:#000000;stroke-width:0.62059903px;stroke-linecap:butt;stroke-linejoin:miter;stroke-opacity:1" />
      <path
         sodipodi:nodetypes="ccccccc"
         inkscape:connector-curvature="0"
         id="path4807"
         d="m -244.38359,517.49214 c 2.73182,4.98432 10.27853,3.40729 18.31488,1.16303 -1.26936,2.29366 0.89749,2.15498 3.49146,1.71396 -3.75621,2.86433 0.23941,2.44222 1.34759,3.24426 -11.66004,1.7278 -12.63093,0.52215 -16.53852,0.12243 -4.61079,-0.91546 -6.92931,-3.06437 -9.49434,-5.08065 z"
         style="fill:#ed1c24;fill-opacity:1;stroke:#000000;stroke-width:0.62059903px;stroke-linecap:butt;stroke-linejoin:miter;stroke-opacity:1" />
      <path
         sodipodi:nodetypes="cccccccccccccccccccccccccccccccccccccccccccccccc"
         inkscape:connector-curvature="0"
         id="path4681"
         d="m -320.59688,461.03106 c 5.45744,2.53932 7.34947,-5.61037 16.3723,7.61795 5.11163,-1.14882 14.2316,14.38458 21.65648,18.52549 3.28412,0.40793 4.32056,-4.56264 15.59267,-7.79109 2.83008,-13.25034 -11.13557,-9.53809 -9.26898,-17.83294 7.32927,-18.06661 38.18767,-29.35251 56.65336,-44.06294 2.67729,5.52139 -3.96842,9.17945 -6.41032,13.67769 2.82869,-2.02448 7.56285,-6.14356 8.3161,-5.8866 2.58962,5.88438 -4.90891,9.3248 -9.35561,13.50455 3.34956,-1.90458 7.18295,-5.98496 10.04861,-5.71347 0.50267,1.34097 -0.0424,2.87232 -2.07902,4.67466 l 7.10333,-5.02092 c 0.61763,0.86567 1.09402,1.73135 0.3465,2.59703 7.73859,-5.42491 22.26186,-16.87756 23.21576,-16.27472 4.78568,2.54897 -2.93861,9.8902 -11.78114,17.6598 3.94943,-2.5617 10.86546,-8.08799 11.78114,-7.61795 -1.98773,9.47405 -8.37284,10.15929 -12.64739,15.06277 4.20611,-2.05125 9.36019,-4.72032 8.48934,-3.46272 -0.9632,3.92205 -1.88025,7.84797 -9.0091,11.25381 2.69747,-1.04993 6.81408,-4.0853 7.44983,-2.25077 -2.07711,6.08153 -8.0539,6.96697 -12.64738,9.69559 1.50151,-0.23085 5.89849,-1.15276 4.63448,0.21642 -2.12837,2.73372 -2.99441,5.60783 -11.0448,6.88212 1.55447,0.13528 3.56626,-0.15597 3.98478,1.03881 -0.56976,3.29844 -4.68153,4.85811 -9.87535,5.88661 l 1.73252,0.34626 c 1.05794,3.03448 -2.69083,4.86808 -9.0091,6.05975 4.2362,-0.22237 2.08599,1.97125 1.81914,2.42389 -2.32116,2.89936 -4.38121,3.66263 -7.88295,3.80898 l -3.9848,3.63584 c 9.8597,5.59889 18.01231,5.70092 25.81453,4.67465 2.31656,-1.06811 2.00796,-0.0229 0.17326,2.25076 2.19561,0.49795 0.61602,1.27536 -0.12995,1.99106 -0.24039,0.98176 2.37876,1.37519 -1.3427,3.07315 -0.2452,0.60624 1.79778,1.15068 -2.30413,1.86108 0.0988,0.63285 0.61964,2.16302 -2.81768,2.20365 1.11088,1.79598 -1.35253,1.95484 -2.81767,2.57093 l -5.26783,0.61213 -9.67809,3.4279 -1.16383,1.28547 0.12251,1.77516 -6.43165,0.73455 -4.03212,3.83819 -15.24617,-6.05973 c -19.34515,0.43001 -18.5454,-8.43137 -24.08201,-14.37024 -13.94713,-4.05714 -17.22938,-23.6308 -20.61697,-24.41208 -7.1187,1.45169 -13.96293,2.66203 -15.41941,-0.86568 z"
         style="fill:#e3e4e5;fill-opacity:1;stroke:#000000;stroke-width:0.62059903px;stroke-linecap:butt;stroke-linejoin:miter;stroke-opacity:1" />
      <path
         sodipodi:nodetypes="ccccc"
         inkscape:connector-curvature="0"
         id="path4683"
         d="m -218.89804,437.65779 -13.86015,7.18512 -1.90577,0 c -14.61683,7.51147 -25.01723,13.59031 -23.389,15.58218 -0.62489,4.0306 13.76867,17.79752 -7.27658,22.68073"
         style="fill:none;stroke:#000000;stroke-width:0.62059903px;stroke-linecap:butt;stroke-linejoin:miter;stroke-opacity:1" />
      <path
         sodipodi:nodetypes="cccc"
         inkscape:connector-curvature="0"
         id="path4687"
         d="m -322.32251,471.17648 -7.93889,-0.6344 3.12395,1.77516 z"
         style="fill:#ed1c24;fill-opacity:1;stroke:#000000;stroke-width:0.62059903px;stroke-linecap:butt;stroke-linejoin:miter;stroke-opacity:1" />
      <path
         sodipodi:nodetypes="ccccccc"
         inkscape:connector-curvature="0"
         id="path4685"
         d="m -320.76706,461.48262 c -2.53528,3.58526 -12.12481,4.4598 -11.94449,5.75398 3.27053,2.85748 9.22891,0.57131 11.45446,3.4279 -2.0351,0.61446 -9.07766,2.7281 -8.94305,3.79518 0.11435,0.27403 7.65672,-1.12222 10.84192,1.34668 0.47187,-1.78699 -0.14901,-7.72363 -0.42878,-12.36494 z"
         style="fill:#ed1c24;fill-opacity:1;stroke:#000000;stroke-width:0.62059903px;stroke-linecap:butt;stroke-linejoin:miter;stroke-opacity:1" />
      <path
         sodipodi:nodetypes="cc"
         inkscape:connector-curvature="0"
         id="path4689"
         d="m -232.86788,444.89401 c 0.41351,4.20965 -0.14276,8.17702 -6.18663,10.77341"
         style="fill:none;stroke:#000000;stroke-width:0.62059903px;stroke-linecap:butt;stroke-linejoin:miter;stroke-opacity:1" />
      <path
         sodipodi:nodetypes="cc"
         inkscape:connector-curvature="0"
         id="path4691"
         d="m -211.12278,434.97757 c -1.0286,7.87178 -12.85672,12.00778 -21.80635,17.13952"
         style="fill:none;stroke:#000000;stroke-width:0.62059903px;stroke-linecap:butt;stroke-linejoin:miter;stroke-opacity:1" />
      <path
         inkscape:connector-curvature="0"
         id="path4693"
         d="m -225.82369,430.69269 -12.18951,6.85581"
         style="fill:none;stroke:#000000;stroke-width:0.62059903px;stroke-linecap:butt;stroke-linejoin:miter;stroke-opacity:1" />
      <path
         sodipodi:nodetypes="cc"
         inkscape:connector-curvature="0"
         id="path4695"
         d="m -195.56432,427.93812 c -6.35391,6.07532 -12.28248,8.75977 -17.51858,11.32433"
         style="fill:none;stroke:#000000;stroke-width:0.62059903px;stroke-linecap:butt;stroke-linejoin:miter;stroke-opacity:1" />
      <path
         inkscape:connector-curvature="0"
         id="path4697"
         d="m -199.72958,436.26303 -11.76073,6.61096"
         style="fill:none;stroke:#000000;stroke-width:0.62059903px;stroke-linecap:butt;stroke-linejoin:miter;stroke-opacity:1" />
      <path
         sodipodi:nodetypes="cc"
         inkscape:connector-curvature="0"
         id="path4699"
         d="m -214.49174,441.58853 c 7.96843,1.12635 -5.46083,8.97316 -19.90748,17.13952"
         style="fill:none;stroke:#000000;stroke-width:0.62059903px;stroke-linecap:butt;stroke-linejoin:miter;stroke-opacity:1" />
      <path
         inkscape:connector-curvature="0"
         id="path4701"
         d="m -214.92052,451.26012 14.21088,-7.34551"
         style="fill:none;stroke:#000000;stroke-width:0.62059903px;stroke-linecap:butt;stroke-linejoin:miter;stroke-opacity:1" />
      <path
         sodipodi:nodetypes="cc"
         inkscape:connector-curvature="0"
         id="path4703"
         d="m -218.96327,450.40314 c 9.89881,1.17206 -0.43327,6.5355 -17.15106,13.22192"
         style="fill:none;stroke:#000000;stroke-width:0.62059903px;stroke-linecap:butt;stroke-linejoin:miter;stroke-opacity:1" />
      <path
         sodipodi:nodetypes="cc"
         inkscape:connector-curvature="0"
         id="path4705"
         d="m -220.92339,458.23835 c 6.15499,-1.55059 12.40705,-3.23458 19.84623,-6.54975"
         style="fill:none;stroke:#000000;stroke-width:0.62059903px;stroke-linecap:butt;stroke-linejoin:miter;stroke-opacity:1" />
      <path
         sodipodi:nodetypes="cc"
         inkscape:connector-curvature="0"
         id="path4707"
         d="m -206.83502,459.34018 c -8.58215,3.04012 -11.61226,2.75124 -17.27357,4.04003"
         style="fill:none;stroke:#000000;stroke-width:0.62059903px;stroke-linecap:butt;stroke-linejoin:miter;stroke-opacity:1" />
      <path
         sodipodi:nodetypes="cc"
         inkscape:connector-curvature="0"
         id="path4709"
         d="m -227.04877,468.03236 c 4.77569,-0.40598 7.60717,1.13095 14.70091,-1.59152"
         style="fill:none;stroke:#000000;stroke-width:0.62059903px;stroke-linecap:butt;stroke-linejoin:miter;stroke-opacity:1" />
      <path
         sodipodi:nodetypes="cc"
         inkscape:connector-curvature="0"
         id="path4711"
         d="m -234.64424,452.85164 c 5.31015,3.30548 0.5879,6.61096 -5.02281,9.91644"
         style="fill:none;stroke:#000000;stroke-width:0.62059903px;stroke-linecap:butt;stroke-linejoin:miter;stroke-opacity:1" />
      <path
         sodipodi:nodetypes="cc"
         inkscape:connector-curvature="0"
         id="path4713"
         d="m -236.48185,460.19715 c -0.67737,2.55233 3.84599,3.42815 -6.00287,8.93704"
         style="fill:none;stroke:#000000;stroke-width:0.62059903px;stroke-linecap:butt;stroke-linejoin:miter;stroke-opacity:1" />
      <path
         sodipodi:nodetypes="cc"
         inkscape:connector-curvature="0"
         id="path4715"
         d="m -238.56448,468.15479 14.82342,-4.89701"
         style="fill:none;stroke:#000000;stroke-width:0.62059903px;stroke-linecap:butt;stroke-linejoin:miter;stroke-opacity:1" />
      <path
         sodipodi:nodetypes="cccccc"
         inkscape:connector-curvature="0"
         id="path4717"
         d="m -221.78094,457.87107 -1.5926,5.26429 -3.1852,5.14185 c -0.21062,2.24263 -2.682,3.05273 -5.14532,4.65216 1.06705,1.87175 -0.49654,4.78009 -4.65528,6.97823 0.76493,4.12576 -7.36309,3.63028 -14.4559,3.67276"
         style="fill:none;stroke:#000000;stroke-width:0.62059903px;stroke-linecap:butt;stroke-linejoin:miter;stroke-opacity:1" />
      <path
         sodipodi:nodetypes="cc"
         inkscape:connector-curvature="0"
         id="path4719"
         d="m -241.62717,472.92937 c 3.51216,-0.18226 8.3084,-1.2529 9.92311,-0.12243"
         style="fill:none;stroke:#000000;stroke-width:0.62059903px;stroke-linecap:butt;stroke-linejoin:miter;stroke-opacity:1" />
      <path
         sodipodi:nodetypes="cc"
         inkscape:connector-curvature="0"
         id="path4721"
         d="m -231.45904,474.15362 c 11.29227,-1.38086 8.51846,-0.57514 12.74079,-0.85697"
         style="fill:none;stroke:#000000;stroke-width:0.62059903px;stroke-linecap:butt;stroke-linejoin:miter;stroke-opacity:1" />
      <path
         sodipodi:nodetypes="cc"
         inkscape:connector-curvature="0"
         id="path4723"
         d="m -236.60436,480.15245 c 3.40511,0.0721 6.56352,0.71952 10.41315,-0.24485"
         style="fill:none;stroke:#000000;stroke-width:0.62059903px;stroke-linecap:butt;stroke-linejoin:miter;stroke-opacity:1" />
      <path
         sodipodi:nodetypes="cc"
         inkscape:connector-curvature="0"
         id="path4725"
         d="m -242.02532,483.48854 c 2.59905,0.80237 2.87948,1.95786 9.58622,2.54032"
         style="fill:none;stroke:#000000;stroke-width:0.62059903px;stroke-linecap:butt;stroke-linejoin:miter;stroke-opacity:1" />
      <path
         sodipodi:nodetypes="cc"
         inkscape:connector-curvature="0"
         id="path4727"
         d="m -250.69273,483.58036 c 4.57695,2.21581 8.11628,4.88095 14.94592,6.12126"
         style="fill:none;stroke:#000000;stroke-width:0.62059903px;stroke-linecap:butt;stroke-linejoin:miter;stroke-opacity:1" />
      <path
         inkscape:connector-curvature="0"
         id="path4729"
         d="m -247.87505,478.19365 12.00574,1.83638"
         style="fill:none;stroke:#000000;stroke-width:0.62059903px;stroke-linecap:butt;stroke-linejoin:miter;stroke-opacity:1" />
      <path
         sodipodi:nodetypes="ccccc"
         inkscape:connector-curvature="0"
         id="path4731"
         d="m -249.16574,483.54832 c 0.36687,-3.51987 1.08559,-3.52368 1.65821,-4.98739 l 6.12538,-5.87641 3.06269,-5.14186 0,-0.73455"
         style="fill:none;stroke:#000000;stroke-width:0.62059903px;stroke-linecap:butt;stroke-linejoin:miter;stroke-opacity:1" />
      <path
         sodipodi:nodetypes="cc"
         inkscape:connector-curvature="0"
         id="path4733"
         d="m -217.43192,448.68919 c 6.63388,-2.26389 12.04313,-6.48588 17.94736,-9.91644"
         style="fill:none;stroke:#000000;stroke-width:0.62059903px;stroke-linecap:butt;stroke-linejoin:miter;stroke-opacity:1" />
      <path
         sodipodi:nodetypes="cc"
         inkscape:connector-curvature="0"
         id="path4735"
         d="m -216.63562,454.32074 c 4.28888,-1.68427 6.00899,-1.22935 13.7821,-5.81519"
         style="fill:none;stroke:#000000;stroke-width:0.62059903px;stroke-linecap:butt;stroke-linejoin:miter;stroke-opacity:1" />
      <path
         inkscape:connector-curvature="0"
         id="path4737"
         d="m -232.50035,447.95464 12.86329,-6.54975"
         style="fill:none;stroke:#000000;stroke-width:0.62059903px;stroke-linecap:butt;stroke-linejoin:miter;stroke-opacity:1" />
      <path
         inkscape:connector-curvature="0"
         id="path4739"
         d="m -236.60436,443.30248 10.04562,-4.71337"
         style="fill:none;stroke:#000000;stroke-width:0.62059903px;stroke-linecap:butt;stroke-linejoin:miter;stroke-opacity:1" />
      <path
         inkscape:connector-curvature="0"
         id="path4741"
         d="m -232.4391,454.44317 11.45446,-5.8152"
         style="fill:none;stroke:#000000;stroke-width:0.62059903px;stroke-linecap:butt;stroke-linejoin:miter;stroke-opacity:1" />
      <path
         sodipodi:nodetypes="cc"
         inkscape:connector-curvature="0"
         id="path4743"
         d="m -222.57724,460.31958 c 7.96344,-1.40789 9.94489,-2.32608 14.5784,-3.73397"
         style="fill:none;stroke:#000000;stroke-width:0.62059903px;stroke-linecap:butt;stroke-linejoin:miter;stroke-opacity:1" />
      <path
         sodipodi:nodetypes="cc"
         inkscape:connector-curvature="0"
         id="path4745"
         d="m -224.78238,465.15537 c 3.48413,0.45714 6.90764,0.12489 10.22938,-1.04061"
         style="fill:none;stroke:#000000;stroke-width:0.62059903px;stroke-linecap:butt;stroke-linejoin:miter;stroke-opacity:1" />
      <path
         sodipodi:nodetypes="cc"
         inkscape:connector-curvature="0"
         id="path4747"
         d="m -228.02883,470.78693 c 2.30152,0.0747 3.90066,0.55892 8.02425,-0.42849"
         style="fill:none;stroke:#000000;stroke-width:0.62059903px;stroke-linecap:butt;stroke-linejoin:miter;stroke-opacity:1" />
      <path
         sodipodi:nodetypes="cc"
         inkscape:connector-curvature="0"
         id="path4749"
         d="m -239.78956,469.74632 c 1.46659,0.20016 1.40818,0.68253 6.98294,0.12242"
         style="fill:none;stroke:#000000;stroke-width:0.62059903px;stroke-linecap:butt;stroke-linejoin:miter;stroke-opacity:1" />
      <path
         inkscape:connector-curvature="0"
         id="path4751"
         d="m -243.89356,475.0106 7.47296,0.55091"
         style="fill:none;stroke:#000000;stroke-width:0.62059903px;stroke-linecap:butt;stroke-linejoin:miter;stroke-opacity:1" />
      <path
         sodipodi:nodetypes="cc"
         inkscape:connector-curvature="0"
         id="path4753"
         d="m -232.62286,477.03061 c 2.05317,-0.065 3.81726,-0.0337 6.30914,-0.24485"
         style="fill:none;stroke:#000000;stroke-width:0.62059903px;stroke-linecap:butt;stroke-linejoin:miter;stroke-opacity:1" />
      <path
         inkscape:connector-curvature="0"
         id="path4755"
         d="m -237.09439,465.46143 9.24932,-2.81577"
         style="fill:none;stroke:#000000;stroke-width:0.62059903px;stroke-linecap:butt;stroke-linejoin:miter;stroke-opacity:1" />
      <path
         inkscape:connector-curvature="0"
         id="path4757"
         d="m -236.29809,461.11534 11.33195,-4.46852"
         style="fill:none;stroke:#000000;stroke-width:0.62059903px;stroke-linecap:butt;stroke-linejoin:miter;stroke-opacity:1" />
      <path
         sodipodi:nodetypes="cccc"
         inkscape:connector-curvature="0"
         id="path4759"
         d="m -246.52747,434.97757 c 2.78879,-0.3845 4.19337,0.65165 0.98006,6.42732 3.83576,-0.69513 2.13548,2.35743 1.10257,4.95822 2.30719,0.54582 1.36471,1.90351 0.49003,3.24427"
         style="fill:none;stroke:#000000;stroke-width:0.62059903px;stroke-linecap:butt;stroke-linejoin:miter;stroke-opacity:1" />
      <path
         sodipodi:nodetypes="cc"
         inkscape:connector-curvature="0"
         id="path4761"
         d="m -244.56735,446.24068 c -0.88151,0.3667 -1.742,0.55488 -2.94018,3.61155"
         style="fill:none;stroke:#000000;stroke-width:0.62059903px;stroke-linecap:butt;stroke-linejoin:miter;stroke-opacity:1" />
      <path
         sodipodi:nodetypes="cc"
         inkscape:connector-curvature="0"
         id="path4763"
         d="m -245.60866,441.22125 c -0.9867,0.95082 -1.78322,0.38122 -3.06269,3.67276"
         style="fill:none;stroke:#000000;stroke-width:0.62059903px;stroke-linecap:butt;stroke-linejoin:miter;stroke-opacity:1" />
      <path
         sodipodi:nodetypes="cc"
         inkscape:connector-curvature="0"
         id="path4765"
         d="m -257.12438,442.26187 c -3.44137,2.98542 -5.84875,6.68619 -7.16669,11.14069"
         style="fill:none;stroke:#000000;stroke-width:0.62059903px;stroke-linecap:butt;stroke-linejoin:miter;stroke-opacity:1" />
      <path
         sodipodi:nodetypes="cc"
         inkscape:connector-curvature="0"
         id="path4767"
         d="m -261.10587,447.2813 c 0.16178,4.92282 -0.22521,9.35818 -1.53135,12.97707"
         style="fill:none;stroke:#000000;stroke-width:0.62059903px;stroke-linecap:butt;stroke-linejoin:miter;stroke-opacity:1" />
      <path
         sodipodi:nodetypes="cc"
         inkscape:connector-curvature="0"
         id="path4769"
         d="m -261.77966,463.44142 c 1.3846,-1.95561 0.76389,-6.51634 0.61253,-10.46735"
         style="fill:none;stroke:#000000;stroke-width:0.62059903px;stroke-linecap:butt;stroke-linejoin:miter;stroke-opacity:1" />
      <path
         sodipodi:nodetypes="cc"
         inkscape:connector-curvature="0"
         id="path4771"
         d="m -246.52747,454.74923 c -2.70114,0.007 -12.92394,5.89944 -7.2892,9.85523"
         style="fill:none;stroke:#000000;stroke-width:0.62059903px;stroke-linecap:butt;stroke-linejoin:miter;stroke-opacity:1" />
      <path
         sodipodi:nodetypes="cc"
         inkscape:connector-curvature="0"
         id="path4773"
         d="m -216.79765,497.39358 c 1.55412,0.11096 2.92849,0.19647 6.64884,-0.8265"
         style="fill:none;stroke:#000000;stroke-width:0.62059903px;stroke-linecap:butt;stroke-linejoin:miter;stroke-opacity:1" />
      <path
         sodipodi:nodetypes="cc"
         inkscape:connector-curvature="0"
         id="path4775"
         d="m -217.98846,500.20293 c 2.36777,-0.14983 5.21199,0.91536 7.57976,-1.38509"
         style="fill:none;stroke:#000000;stroke-width:0.62059903px;stroke-linecap:butt;stroke-linejoin:miter;stroke-opacity:1" />
      <path
         sodipodi:nodetypes="cc"
         inkscape:connector-curvature="0"
         id="path4777"
         d="m -220.15411,503.2328 c 2.03902,0.053 0.42552,0.38681 6.49694,0.12985"
         style="fill:none;stroke:#000000;stroke-width:0.62059903px;stroke-linecap:butt;stroke-linejoin:miter;stroke-opacity:1" />
      <path
         sodipodi:nodetypes="cc"
         inkscape:connector-curvature="0"
         id="path4779"
         d="m -224.48541,505.52684 c 0.93878,0.31079 3.62378,0.56927 7.10332,0.303"
         style="fill:none;stroke:#000000;stroke-width:0.62059903px;stroke-linecap:butt;stroke-linejoin:miter;stroke-opacity:1" />
      <path
         sodipodi:nodetypes="cc"
         inkscape:connector-curvature="0"
         id="path4783"
         d="m -231.58874,492.23871 c 3.99244,3.37631 1.0721,3.98935 -5.89056,2.98657"
         style="fill:none;stroke:#000000;stroke-width:0.62059903px;stroke-linecap:butt;stroke-linejoin:miter;stroke-opacity:1" />
      <path
         sodipodi:nodetypes="cc"
         inkscape:connector-curvature="0"
         id="path4785"
         d="m -221.23694,494.57603 c 1.64729,1.52715 5.37427,4.94711 -5.06762,3.11644"
         style="fill:none;stroke:#000000;stroke-width:0.62059903px;stroke-linecap:butt;stroke-linejoin:miter;stroke-opacity:1" />
      <path
         sodipodi:nodetypes="cc"
         inkscape:connector-curvature="0"
         id="path4787"
         d="m -232.36837,495.83126 c 2.06695,2.59213 4.28957,5.87028 -9.3556,3.63584"
         style="fill:none;stroke:#000000;stroke-width:0.62059903px;stroke-linecap:butt;stroke-linejoin:miter;stroke-opacity:1" />
      <path
         sodipodi:nodetypes="cc"
         inkscape:connector-curvature="0"
         id="path4791"
         d="m -232.75819,500.15965 c 15.53685,3.31781 11.9996,-1.15393 10.78493,-1.86121"
         style="fill:none;stroke:#000000;stroke-width:0.62059903px;stroke-linecap:butt;stroke-linejoin:miter;stroke-opacity:1" />
      <path
         sodipodi:nodetypes="cc"
         inkscape:connector-curvature="0"
         id="path4793"
         d="m -230.98236,498.16858 c 6.01156,-0.2845 9.31609,-1.58594 3.29179,-4.76122"
         style="fill:none;stroke:#000000;stroke-width:0.62059903px;stroke-linecap:butt;stroke-linejoin:miter;stroke-opacity:1" />
      <path
         sodipodi:nodetypes="cc"
         inkscape:connector-curvature="0"
         id="path4795"
         d="m -233.14801,503.83877 c 14.94664,4.29858 9.88535,-1.64935 8.14284,-2.38061"
         style="fill:none;stroke:#000000;stroke-width:0.62059903px;stroke-linecap:butt;stroke-linejoin:miter;stroke-opacity:1" />
      <path
         sodipodi:nodetypes="cc"
         inkscape:connector-curvature="0"
         id="path4797"
         d="m -240.64115,508.0373 c 6.03939,1.60943 10.64103,1.98735 7.88296,-3.93883"
         style="fill:none;stroke:#000000;stroke-width:0.62059903px;stroke-linecap:butt;stroke-linejoin:miter;stroke-opacity:1" />
      <path
         sodipodi:nodetypes="cc"
         inkscape:connector-curvature="0"
         id="path4799"
         d="m -232.28174,506.86864 c 2.58718,0.67407 1.41821,2.05828 7.92627,1.99106"
         style="fill:none;stroke:#000000;stroke-width:0.62059903px;stroke-linecap:butt;stroke-linejoin:miter;stroke-opacity:1" />
      <path
         sodipodi:nodetypes="cc"
         inkscape:connector-curvature="0"
         id="path4801"
         d="m -246.22852,512.23583 c 4.21255,0.50047 9.02459,1.3438 12.21426,-0.0866"
         style="fill:#0000ff;stroke:#000000;stroke-width:0.62059903px;stroke-linecap:butt;stroke-linejoin:miter;stroke-opacity:1" />
      <path
         sodipodi:nodetypes="cc"
         inkscape:connector-curvature="0"
         id="path4803"
         d="m -249.65025,510.46119 c 3.23928,1.69459 6.27538,3.36864 7.57977,5.62691"
         style="fill:none;stroke:#000000;stroke-width:0.62059903px;stroke-linecap:butt;stroke-linejoin:miter;stroke-opacity:1" />
      <path
         sodipodi:nodetypes="csc"
         inkscape:connector-curvature="0"
         id="path4809"
         d="m -250.26395,491.90527 c 14.28727,2.22389 14.70107,-2.62896 7.57296,-4.3769 -0.50588,-0.12406 -7.54328,1.59928 -8.12425,1.49991"
         style="fill:none;stroke:#000000;stroke-width:0.62059903px;stroke-linecap:butt;stroke-linejoin:miter;stroke-opacity:1" />
      <path
         sodipodi:nodetypes="ccc"
         inkscape:connector-curvature="0"
         id="path4811"
         d="m -273.05036,509.65692 c 3.40763,3.13832 7.77424,2.85398 12.31201,1.9588 l 4.83905,2.32608"
         style="fill:none;stroke:#000000;stroke-width:0.62059903px;stroke-linecap:butt;stroke-linejoin:miter;stroke-opacity:1" />
      <path
         sodipodi:nodetypes="cc"
         inkscape:connector-curvature="0"
         id="path4813"
         d="m -291.24274,493.25195 c 2.35371,3.24035 4.18316,3.68652 6.06413,4.4073"
         style="fill:none;stroke:#000000;stroke-width:0.62059903px;stroke-linecap:butt;stroke-linejoin:miter;stroke-opacity:1" />
      <path
         sodipodi:nodetypes="ccc"
         inkscape:connector-curvature="0"
         id="path4815"
         d="m -317.94939,466.62447 c 2.11747,-4.68576 4.98016,0.27245 7.53422,1.10183 -2.51141,-0.15963 -5.02281,2.24075 -7.53422,-1.10183 z"
         style="fill:none;stroke:#000000;stroke-width:0.62059903px;stroke-linecap:butt;stroke-linejoin:miter;stroke-opacity:1" />
      <path
         transform="matrix(0.7445706,0,0,0.74790647,-52.767295,146.75078)"
         d="m -351.65304,427.56326 c 0,0.67122 -0.51445,1.21534 -1.14905,1.21534 -0.63461,0 -1.14905,-0.54412 -1.14905,-1.21534 0,-0.67121 0.51444,-1.21534 1.14905,-1.21534 0.6346,0 1.14905,0.54413 1.14905,1.21534 z"
         sodipodi:ry="1.2153398"
         sodipodi:rx="1.1490486"
         sodipodi:cy="427.56326"
         sodipodi:cx="-352.80209"
         id="path4817"
         style="fill:#0000ff;fill-opacity:1;stroke:#000000;stroke-width:0.81478167;stroke-opacity:1"
         sodipodi:type="arc" />
      <path
         sodipodi:nodetypes="cc"
         inkscape:connector-curvature="0"
         id="path4819"
         d="m -325.40463,466.35497 c 3.921,0.52943 2.6158,-0.27983 1.86246,-0.99553"
         style="fill:none;stroke:#000000;stroke-width:0.62059903px;stroke-linecap:butt;stroke-linejoin:miter;stroke-opacity:1" />
    </g>
  </g>
</svg>
